<svg width="22" height="24" viewBox="0 0 22 24" fill="none" xmlns="http://www.w3.org/2000/svg">
<g clip-path="url(#clip0_14_2003)">
<path d="M11.0049 6.60952C7.88168 6.60952 5.36249 9.01421 5.36249 11.9955C5.36249 14.9767 7.88168 17.3814 11.0049 17.3814C14.1281 17.3814 16.6473 14.9767 16.6473 11.9955C16.6473 9.01421 14.1281 6.60952 11.0049 6.60952ZM11.0049 15.497C8.98659 15.497 7.33659 13.9267 7.33659 11.9955C7.33659 10.0642 8.98168 8.4939 11.0049 8.4939C13.0281 8.4939 14.6732 10.0642 14.6732 11.9955C14.6732 13.9267 13.0232 15.497 11.0049 15.497ZM18.1942 6.38921C18.1942 7.08765 17.6049 7.64546 16.8781 7.64546C16.1464 7.64546 15.562 7.08296 15.562 6.38921C15.562 5.69546 16.1513 5.13296 16.8781 5.13296C17.6049 5.13296 18.1942 5.69546 18.1942 6.38921ZM21.9312 7.66421C21.8477 5.9814 21.4451 4.49077 20.1535 3.26265C18.8669 2.03452 17.3053 1.65015 15.5424 1.56577C13.7254 1.46733 8.27945 1.46733 6.46249 1.56577C4.70445 1.64546 3.14285 2.02983 1.85133 3.25796C0.559812 4.48608 0.162044 5.97671 0.0736511 7.65952C-0.0294739 9.3939 -0.0294739 14.5923 0.0736511 16.3267C0.157133 18.0095 0.559812 19.5001 1.85133 20.7283C3.14285 21.9564 4.69954 22.3408 6.46249 22.4251C8.27945 22.5236 13.7254 22.5236 15.5424 22.4251C17.3053 22.3455 18.8669 21.9611 20.1535 20.7283C21.4402 19.5001 21.8428 18.0095 21.9312 16.3267C22.0343 14.5923 22.0343 9.39858 21.9312 7.66421ZM19.5839 18.1876C19.2009 19.1064 18.4594 19.8142 17.4919 20.1845C16.0433 20.733 12.6058 20.6064 11.0049 20.6064C9.404 20.6064 5.96159 20.7283 4.51784 20.1845C3.55534 19.8189 2.81383 19.1111 2.42588 18.1876C1.85133 16.8048 1.98392 13.5236 1.98392 11.9955C1.98392 10.4673 1.85624 7.1814 2.42588 5.80327C2.80892 4.88452 3.55043 4.17671 4.51784 3.8064C5.9665 3.25796 9.404 3.38452 11.0049 3.38452C12.6058 3.38452 16.0482 3.26265 17.4919 3.8064C18.4544 4.17202 19.196 4.87983 19.5839 5.80327C20.1585 7.18608 20.0259 10.4673 20.0259 11.9955C20.0259 13.5236 20.1585 16.8095 19.5839 18.1876Z" fill="white"/>
</g>
<defs>
<clipPath id="clip0_14_2003">
<rect width="22" height="24" fill="white"/>
</clipPath>
</defs>
</svg>
